<svg width="350" height="130" viewBox="0 0 350 130" fill="none" xmlns="http://www.w3.org/2000/svg">
<path d="M14.3733 126V112.909H15.9585V124.594H22.0438V126H14.3733ZM27.183 126.23C26.5608 126.23 25.9962 126.113 25.4891 125.879C24.982 125.64 24.5793 125.297 24.281 124.849C23.9827 124.398 23.8335 123.852 23.8335 123.213C23.8335 122.651 23.9443 122.195 24.1659 121.845C24.3875 121.491 24.6837 121.214 25.0544 121.014C25.4252 120.814 25.8343 120.665 26.2817 120.567C26.7334 120.464 27.1872 120.384 27.6432 120.324C28.2398 120.247 28.7235 120.19 29.0942 120.151C29.4692 120.109 29.7419 120.038 29.9124 119.94C30.0871 119.842 30.1744 119.672 30.1744 119.429V119.378C30.1744 118.747 30.0019 118.257 29.6567 117.908C29.3158 117.558 28.798 117.384 28.1034 117.384C27.3833 117.384 26.8186 117.541 26.4095 117.857C26.0004 118.172 25.7128 118.509 25.5466 118.866L24.1148 118.355C24.3705 117.759 24.7114 117.294 25.1375 116.962C25.5679 116.625 26.0367 116.391 26.5438 116.259C27.0551 116.122 27.558 116.054 28.0523 116.054C28.3676 116.054 28.7298 116.092 29.1389 116.169C29.5523 116.241 29.9507 116.393 30.3343 116.623C30.722 116.853 31.0438 117.2 31.2994 117.665C31.5551 118.129 31.683 118.751 31.683 119.531V126H30.1744V124.67H30.0977C29.9955 124.884 29.825 125.112 29.5864 125.354C29.3477 125.597 29.0303 125.804 28.634 125.974C28.2377 126.145 27.754 126.23 27.183 126.23ZM27.4131 124.875C28.0097 124.875 28.5125 124.758 28.9216 124.523C29.335 124.289 29.646 123.987 29.8548 123.616C30.0679 123.245 30.1744 122.855 30.1744 122.446V121.065C30.1105 121.142 29.9699 121.212 29.7526 121.276C29.5395 121.336 29.2923 121.389 29.0111 121.436C28.7341 121.479 28.4635 121.517 28.1993 121.551C27.9394 121.581 27.7284 121.607 27.5665 121.628C27.1744 121.679 26.808 121.762 26.4671 121.877C26.1304 121.988 25.8577 122.156 25.6489 122.382C25.4443 122.604 25.3421 122.906 25.3421 123.29C25.3421 123.814 25.536 124.21 25.9237 124.479C26.3158 124.743 26.8122 124.875 27.4131 124.875ZM34.4363 129.682V116.182H35.8937V117.741H36.0727C36.1835 117.571 36.3369 117.354 36.5329 117.089C36.7332 116.821 37.0187 116.582 37.3895 116.374C37.7645 116.161 38.2716 116.054 38.9108 116.054C39.7375 116.054 40.4662 116.261 41.0969 116.674C41.7275 117.087 42.2197 117.673 42.5734 118.432C42.9271 119.19 43.104 120.085 43.104 121.116C43.104 122.156 42.9271 123.058 42.5734 123.82C42.2197 124.579 41.7297 125.167 41.1032 125.585C40.4768 125.998 39.7545 126.205 38.9363 126.205C38.3057 126.205 37.8007 126.1 37.4214 125.891C37.0422 125.678 36.7503 125.437 36.5457 125.169C36.3412 124.896 36.1835 124.67 36.0727 124.491H35.9449V129.682H34.4363ZM35.9193 121.091C35.9193 121.832 36.028 122.487 36.2453 123.053C36.4626 123.616 36.7801 124.057 37.1977 124.376C37.6153 124.692 38.1267 124.849 38.7318 124.849C39.3625 124.849 39.8888 124.683 40.3106 124.351C40.7368 124.014 41.0564 123.562 41.2694 122.996C41.4868 122.425 41.5954 121.79 41.5954 121.091C41.5954 120.401 41.4889 119.778 41.2758 119.224C41.067 118.666 40.7496 118.225 40.3234 117.901C39.9015 117.573 39.371 117.409 38.7318 117.409C38.1182 117.409 37.6025 117.565 37.1849 117.876C36.7673 118.183 36.452 118.613 36.2389 119.167C36.0258 119.717 35.9193 120.358 35.9193 121.091ZM48.2943 126.23C47.6721 126.23 47.1075 126.113 46.6004 125.879C46.0933 125.64 45.6906 125.297 45.3923 124.849C45.094 124.398 44.9449 123.852 44.9449 123.213C44.9449 122.651 45.0557 122.195 45.2773 121.845C45.4988 121.491 45.795 121.214 46.1657 121.014C46.5365 120.814 46.9456 120.665 47.393 120.567C47.8447 120.464 48.2986 120.384 48.7545 120.324C49.3511 120.247 49.8348 120.19 50.2055 120.151C50.5805 120.109 50.8532 120.038 51.0237 119.94C51.1984 119.842 51.2858 119.672 51.2858 119.429V119.378C51.2858 118.747 51.1132 118.257 50.768 117.908C50.4271 117.558 49.9094 117.384 49.2148 117.384C48.4946 117.384 47.93 117.541 47.5209 117.857C47.1118 118.172 46.8241 118.509 46.6579 118.866L45.2261 118.355C45.4818 117.759 45.8227 117.294 46.2488 116.962C46.6792 116.625 47.148 116.391 47.6551 116.259C48.1665 116.122 48.6693 116.054 49.1636 116.054C49.479 116.054 49.8412 116.092 50.2503 116.169C50.6636 116.241 51.0621 116.393 51.4456 116.623C51.8334 116.853 52.1551 117.2 52.4108 117.665C52.6665 118.129 52.7943 118.751 52.7943 119.531V126H51.2858V124.67H51.2091C51.1068 124.884 50.9363 125.112 50.6977 125.354C50.4591 125.597 50.1416 125.804 49.7453 125.974C49.349 126.145 48.8653 126.23 48.2943 126.23ZM48.5244 124.875C49.121 124.875 49.6238 124.758 50.0329 124.523C50.4463 124.289 50.7574 123.987 50.9662 123.616C51.1792 123.245 51.2858 122.855 51.2858 122.446V121.065C51.2219 121.142 51.0812 121.212 50.8639 121.276C50.6508 121.336 50.4037 121.389 50.1224 121.436C49.8454 121.479 49.5748 121.517 49.3106 121.551C49.0507 121.581 48.8398 121.607 48.6778 121.628C48.2858 121.679 47.9193 121.762 47.5784 121.877C47.2417 121.988 46.969 122.156 46.7602 122.382C46.5557 122.604 46.4534 122.906 46.4534 123.29C46.4534 123.814 46.6473 124.21 47.0351 124.479C47.4271 124.743 47.9236 124.875 48.5244 124.875ZM55.5477 126V116.182H57.0051V117.665H57.1073C57.2863 117.179 57.6102 116.785 58.0789 116.482C58.5477 116.18 59.0761 116.028 59.6642 116.028C59.7749 116.028 59.9134 116.031 60.0796 116.035C60.2458 116.039 60.3715 116.045 60.4568 116.054V117.588C60.4056 117.575 60.2884 117.556 60.1052 117.531C59.9262 117.501 59.7366 117.486 59.5363 117.486C59.059 117.486 58.6329 117.586 58.2579 117.786C57.8872 117.982 57.5931 118.255 57.3758 118.604C57.1627 118.95 57.0562 119.344 57.0562 119.787V126H55.5477ZM64.2137 122.318V122.241C64.2222 121.428 64.3074 120.78 64.4694 120.298C64.6313 119.817 64.8614 119.427 65.1597 119.129C65.458 118.83 65.816 118.555 66.2336 118.304C66.485 118.151 66.7108 117.969 66.9111 117.761C67.1114 117.548 67.2691 117.303 67.3841 117.026C67.5035 116.749 67.5631 116.442 67.5631 116.105C67.5631 115.687 67.4651 115.325 67.2691 115.018C67.0731 114.712 66.811 114.475 66.4829 114.309C66.1547 114.143 65.7904 114.06 65.3898 114.06C65.0404 114.06 64.7037 114.132 64.3799 114.277C64.056 114.422 63.7854 114.65 63.5681 114.961C63.3508 115.272 63.2251 115.679 63.191 116.182H61.5802C61.6143 115.457 61.8018 114.837 62.1427 114.322C62.4878 113.806 62.9417 113.412 63.5042 113.139C64.0709 112.866 64.6995 112.73 65.3898 112.73C66.1398 112.73 66.7918 112.879 67.3458 113.178C67.904 113.476 68.3344 113.885 68.637 114.405C68.9438 114.925 69.0972 115.517 69.0972 116.182C69.0972 116.651 69.0248 117.075 68.8799 117.454C68.7393 117.833 68.5347 118.172 68.2662 118.47C68.002 118.768 67.6824 119.033 67.3074 119.263C66.9324 119.497 66.632 119.744 66.4062 120.004C66.1803 120.26 66.0162 120.565 65.914 120.918C65.8117 121.272 65.7563 121.713 65.7478 122.241V122.318H64.2137ZM65.0319 126.102C64.7165 126.102 64.4459 125.989 64.2201 125.763C63.9942 125.538 63.8813 125.267 63.8813 124.952C63.8813 124.636 63.9942 124.366 64.2201 124.14C64.4459 123.914 64.7165 123.801 65.0319 123.801C65.3472 123.801 65.6178 123.914 65.8437 124.14C66.0695 124.366 66.1824 124.636 66.1824 124.952C66.1824 125.161 66.1292 125.352 66.0226 125.527C65.9204 125.702 65.7819 125.842 65.6072 125.949C65.4367 126.051 65.2449 126.102 65.0319 126.102ZM76.635 126V112.909H78.2203V119.403H78.3737L84.2543 112.909H86.3254L80.8282 118.815L86.3254 126H84.4078L79.8566 119.915L78.2203 121.756V126H76.635ZM91.0619 126.23C90.4397 126.23 89.8751 126.113 89.368 125.879C88.8609 125.64 88.4582 125.297 88.1599 124.849C87.8616 124.398 87.7124 123.852 87.7124 123.213C87.7124 122.651 87.8232 122.195 88.0448 121.845C88.2664 121.491 88.5626 121.214 88.9333 121.014C89.3041 120.814 89.7132 120.665 90.1606 120.567C90.6123 120.464 91.0661 120.384 91.5221 120.324C92.1187 120.247 92.6024 120.19 92.9731 120.151C93.3481 120.109 93.6208 120.038 93.7913 119.94C93.966 119.842 94.0534 119.672 94.0534 119.429V119.378C94.0534 118.747 93.8808 118.257 93.5356 117.908C93.1947 117.558 92.6769 117.384 91.9823 117.384C91.2622 117.384 90.6975 117.541 90.2884 117.857C89.8794 118.172 89.5917 118.509 89.4255 118.866L87.9937 118.355C88.2494 117.759 88.5903 117.294 89.0164 116.962C89.4468 116.625 89.9156 116.391 90.4227 116.259C90.934 116.122 91.4369 116.054 91.9312 116.054C92.2465 116.054 92.6088 116.092 93.0178 116.169C93.4312 116.241 93.8296 116.393 94.2132 116.623C94.6009 116.853 94.9227 117.2 95.1784 117.665C95.434 118.129 95.5619 118.751 95.5619 119.531V126H94.0534V124.67H93.9767C93.8744 124.884 93.7039 125.112 93.4653 125.354C93.2267 125.597 92.9092 125.804 92.5129 125.974C92.1166 126.145 91.6329 126.23 91.0619 126.23ZM91.292 124.875C91.8886 124.875 92.3914 124.758 92.8005 124.523C93.2139 124.289 93.5249 123.987 93.7338 123.616C93.9468 123.245 94.0534 122.855 94.0534 122.446V121.065C93.9894 121.142 93.8488 121.212 93.6315 121.276C93.4184 121.336 93.1713 121.389 92.89 121.436C92.613 121.479 92.3424 121.517 92.0782 121.551C91.8183 121.581 91.6073 121.607 91.4454 121.628C91.0534 121.679 90.6869 121.762 90.346 121.877C90.0093 121.988 89.7366 122.156 89.5278 122.382C89.3232 122.604 89.221 122.906 89.221 123.29C89.221 123.814 89.4149 124.21 89.8026 124.479C90.1947 124.743 90.6911 124.875 91.292 124.875ZM98.3153 126V116.182H99.7726V117.716H99.9005C100.105 117.192 100.435 116.785 100.891 116.495C101.347 116.201 101.895 116.054 102.534 116.054C103.182 116.054 103.721 116.201 104.151 116.495C104.586 116.785 104.925 117.192 105.168 117.716H105.27C105.521 117.209 105.898 116.806 106.401 116.508C106.904 116.205 107.507 116.054 108.21 116.054C109.088 116.054 109.806 116.329 110.364 116.879C110.922 117.424 111.202 118.274 111.202 119.429V126H109.693V119.429C109.693 118.705 109.495 118.187 109.099 117.876C108.702 117.565 108.236 117.409 107.699 117.409C107.008 117.409 106.474 117.618 106.094 118.036C105.715 118.449 105.525 118.973 105.525 119.608V126H103.991V119.276C103.991 118.717 103.81 118.268 103.448 117.927C103.086 117.582 102.619 117.409 102.048 117.409C101.656 117.409 101.29 117.513 100.949 117.722C100.612 117.931 100.339 118.221 100.131 118.592C99.926 118.958 99.8238 119.382 99.8238 119.864V126H98.3153ZM113.96 126V116.182H115.468V126H113.96ZM114.727 114.545C114.433 114.545 114.179 114.445 113.966 114.245C113.757 114.045 113.653 113.804 113.653 113.523C113.653 113.241 113.757 113.001 113.966 112.8C114.179 112.6 114.433 112.5 114.727 112.5C115.021 112.5 115.272 112.6 115.481 112.8C115.694 113.001 115.801 113.241 115.801 113.523C115.801 113.804 115.694 114.045 115.481 114.245C115.272 114.445 115.021 114.545 114.727 114.545ZM126.183 126.23C125.561 126.23 124.996 126.113 124.489 125.879C123.982 125.64 123.579 125.297 123.281 124.849C122.983 124.398 122.834 123.852 122.834 123.213C122.834 122.651 122.944 122.195 123.166 121.845C123.388 121.491 123.684 121.214 124.054 121.014C124.425 120.814 124.834 120.665 125.282 120.567C125.733 120.464 126.187 120.384 126.643 120.324C127.24 120.247 127.723 120.19 128.094 120.151C128.469 120.109 128.742 120.038 128.912 119.94C129.087 119.842 129.174 119.672 129.174 119.429V119.378C129.174 118.747 129.002 118.257 128.657 117.908C128.316 117.558 127.798 117.384 127.103 117.384C126.383 117.384 125.819 117.541 125.41 117.857C125 118.172 124.713 118.509 124.547 118.866L123.115 118.355C123.37 117.759 123.711 117.294 124.138 116.962C124.568 116.625 125.037 116.391 125.544 116.259C126.055 116.122 126.558 116.054 127.052 116.054C127.368 116.054 127.73 116.092 128.139 116.169C128.552 116.241 128.951 116.393 129.334 116.623C129.722 116.853 130.044 117.2 130.299 117.665C130.555 118.129 130.683 118.751 130.683 119.531V126H129.174V124.67H129.098C128.995 124.884 128.825 125.112 128.586 125.354C128.348 125.597 128.03 125.804 127.634 125.974C127.238 126.145 126.754 126.23 126.183 126.23ZM126.413 124.875C127.01 124.875 127.513 124.758 127.922 124.523C128.335 124.289 128.646 123.987 128.855 123.616C129.068 123.245 129.174 122.855 129.174 122.446V121.065C129.111 121.142 128.97 121.212 128.753 121.276C128.54 121.336 128.292 121.389 128.011 121.436C127.734 121.479 127.464 121.517 127.199 121.551C126.939 121.581 126.728 121.607 126.566 121.628C126.174 121.679 125.808 121.762 125.467 121.877C125.13 121.988 124.858 122.156 124.649 122.382C124.444 122.604 124.342 122.906 124.342 123.29C124.342 123.814 124.536 124.21 124.924 124.479C125.316 124.743 125.812 124.875 126.413 124.875ZM134.843 122.42L134.817 120.554H135.124L139.419 116.182H141.286L136.709 120.81H136.581L134.843 122.42ZM133.436 126V112.909H134.945V126H133.436ZM139.675 126L135.84 121.142L136.914 120.094L141.593 126H139.675ZM146.117 126.23C145.494 126.23 144.93 126.113 144.423 125.879C143.916 125.64 143.513 125.297 143.215 124.849C142.916 124.398 142.767 123.852 142.767 123.213C142.767 122.651 142.878 122.195 143.1 121.845C143.321 121.491 143.617 121.214 143.988 121.014C144.359 120.814 144.768 120.665 145.215 120.567C145.667 120.464 146.121 120.384 146.577 120.324C147.173 120.247 147.657 120.19 148.028 120.151C148.403 120.109 148.676 120.038 148.846 119.94C149.021 119.842 149.108 119.672 149.108 119.429V119.378C149.108 118.747 148.935 118.257 148.59 117.908C148.249 117.558 147.732 117.384 147.037 117.384C146.317 117.384 145.752 117.541 145.343 117.857C144.934 118.172 144.646 118.509 144.48 118.866L143.048 118.355C143.304 117.759 143.645 117.294 144.071 116.962C144.502 116.625 144.97 116.391 145.477 116.259C145.989 116.122 146.492 116.054 146.986 116.054C147.301 116.054 147.663 116.092 148.073 116.169C148.486 116.241 148.884 116.393 149.268 116.623C149.656 116.853 149.977 117.2 150.233 117.665C150.489 118.129 150.617 118.751 150.617 119.531V126H149.108V124.67H149.031C148.929 124.884 148.759 125.112 148.52 125.354C148.281 125.597 147.964 125.804 147.568 125.974C147.171 126.145 146.688 126.23 146.117 126.23ZM146.347 124.875C146.943 124.875 147.446 124.758 147.855 124.523C148.269 124.289 148.58 123.987 148.788 123.616C149.002 123.245 149.108 122.855 149.108 122.446V121.065C149.044 121.142 148.903 121.212 148.686 121.276C148.473 121.336 148.226 121.389 147.945 121.436C147.668 121.479 147.397 121.517 147.133 121.551C146.873 121.581 146.662 121.607 146.5 121.628C146.108 121.679 145.742 121.762 145.401 121.877C145.064 121.988 144.791 122.156 144.582 122.382C144.378 122.604 144.276 122.906 144.276 123.29C144.276 123.814 144.47 124.21 144.857 124.479C145.249 124.743 145.746 124.875 146.347 124.875ZM154.878 120.094V126H153.37V116.182H154.827V117.716H154.955C155.185 117.217 155.535 116.817 156.003 116.514C156.472 116.207 157.077 116.054 157.819 116.054C158.484 116.054 159.065 116.19 159.564 116.463C160.062 116.732 160.45 117.141 160.727 117.69C161.004 118.236 161.143 118.926 161.143 119.761V126H159.634V119.864C159.634 119.092 159.434 118.491 159.033 118.061C158.633 117.626 158.083 117.409 157.384 117.409C156.903 117.409 156.472 117.513 156.093 117.722C155.718 117.931 155.422 118.236 155.204 118.636C154.987 119.037 154.878 119.523 154.878 120.094ZM172.95 126.205C172.03 126.205 171.237 125.987 170.573 125.553C169.908 125.118 169.396 124.519 169.038 123.756C168.68 122.994 168.502 122.122 168.502 121.142C168.502 120.145 168.685 119.265 169.051 118.502C169.422 117.735 169.938 117.136 170.598 116.706C171.263 116.271 172.038 116.054 172.925 116.054C173.615 116.054 174.237 116.182 174.791 116.438C175.345 116.693 175.799 117.051 176.153 117.511C176.506 117.972 176.726 118.509 176.811 119.122H175.303C175.188 118.675 174.932 118.278 174.536 117.933C174.144 117.584 173.615 117.409 172.95 117.409C172.362 117.409 171.847 117.562 171.403 117.869C170.965 118.172 170.622 118.6 170.374 119.154C170.131 119.704 170.01 120.349 170.01 121.091C170.01 121.849 170.129 122.51 170.368 123.072C170.611 123.635 170.952 124.072 171.391 124.383C171.834 124.694 172.354 124.849 172.95 124.849C173.342 124.849 173.698 124.781 174.018 124.645C174.337 124.509 174.608 124.312 174.83 124.057C175.051 123.801 175.209 123.494 175.303 123.136H176.811C176.726 123.716 176.515 124.238 176.178 124.702C175.846 125.163 175.405 125.529 174.855 125.802C174.31 126.07 173.675 126.205 172.95 126.205ZM181.906 126.23C181.283 126.23 180.719 126.113 180.212 125.879C179.705 125.64 179.302 125.297 179.004 124.849C178.705 124.398 178.556 123.852 178.556 123.213C178.556 122.651 178.667 122.195 178.889 121.845C179.11 121.491 179.406 121.214 179.777 121.014C180.148 120.814 180.557 120.665 181.004 120.567C181.456 120.464 181.91 120.384 182.366 120.324C182.962 120.247 183.446 120.19 183.817 120.151C184.192 120.109 184.465 120.038 184.635 119.94C184.81 119.842 184.897 119.672 184.897 119.429V119.378C184.897 118.747 184.725 118.257 184.379 117.908C184.038 117.558 183.521 117.384 182.826 117.384C182.106 117.384 181.541 117.541 181.132 117.857C180.723 118.172 180.435 118.509 180.269 118.866L178.837 118.355C179.093 117.759 179.434 117.294 179.86 116.962C180.291 116.625 180.759 116.391 181.266 116.259C181.778 116.122 182.281 116.054 182.775 116.054C183.09 116.054 183.453 116.092 183.862 116.169C184.275 116.241 184.673 116.393 185.057 116.623C185.445 116.853 185.766 117.2 186.022 117.665C186.278 118.129 186.406 118.751 186.406 119.531V126H184.897V124.67H184.82C184.718 124.884 184.548 125.112 184.309 125.354C184.07 125.597 183.753 125.804 183.357 125.974C182.96 126.145 182.477 126.23 181.906 126.23ZM182.136 124.875C182.732 124.875 183.235 124.758 183.644 124.523C184.058 124.289 184.369 123.987 184.578 123.616C184.791 123.245 184.897 122.855 184.897 122.446V121.065C184.833 121.142 184.693 121.212 184.475 121.276C184.262 121.336 184.015 121.389 183.734 121.436C183.457 121.479 183.186 121.517 182.922 121.551C182.662 121.581 182.451 121.607 182.289 121.628C181.897 121.679 181.531 121.762 181.19 121.877C180.853 121.988 180.58 122.156 180.372 122.382C180.167 122.604 180.065 122.906 180.065 123.29C180.065 123.814 180.259 124.21 180.646 124.479C181.038 124.743 181.535 124.875 182.136 124.875ZM189.159 126V116.182H190.616V117.665H190.719C190.898 117.179 191.222 116.785 191.69 116.482C192.159 116.18 192.687 116.028 193.275 116.028C193.386 116.028 193.525 116.031 193.691 116.035C193.857 116.039 193.983 116.045 194.068 116.054V117.588C194.017 117.575 193.9 117.556 193.717 117.531C193.538 117.501 193.348 117.486 193.148 117.486C192.67 117.486 192.244 117.586 191.869 117.786C191.498 117.982 191.204 118.255 190.987 118.604C190.774 118.95 190.668 119.344 190.668 119.787V126H189.159ZM195.856 126V116.182H197.365V126H195.856ZM196.623 114.545C196.329 114.545 196.076 114.445 195.863 114.245C195.654 114.045 195.549 113.804 195.549 113.523C195.549 113.241 195.654 113.001 195.863 112.8C196.076 112.6 196.329 112.5 196.623 112.5C196.917 112.5 197.169 112.6 197.378 112.8C197.591 113.001 197.697 113.241 197.697 113.523C197.697 113.804 197.591 114.045 197.378 114.245C197.169 114.445 196.917 114.545 196.623 114.545ZM201.534 122.42L201.508 120.554H201.815L206.111 116.182H207.977L203.4 120.81H203.273L201.534 122.42ZM200.128 126V112.909H201.636V126H200.128ZM206.366 126L202.531 121.142L203.605 120.094L208.284 126H206.366ZM212.808 126.23C212.186 126.23 211.621 126.113 211.114 125.879C210.607 125.64 210.204 125.297 209.906 124.849C209.608 124.398 209.459 123.852 209.459 123.213C209.459 122.651 209.569 122.195 209.791 121.845C210.013 121.491 210.309 121.214 210.679 121.014C211.05 120.814 211.459 120.665 211.907 120.567C212.358 120.464 212.812 120.384 213.268 120.324C213.865 120.247 214.348 120.19 214.719 120.151C215.094 120.109 215.367 120.038 215.537 119.94C215.712 119.842 215.799 119.672 215.799 119.429V119.378C215.799 118.747 215.627 118.257 215.282 117.908C214.941 117.558 214.423 117.384 213.728 117.384C213.008 117.384 212.444 117.541 212.035 117.857C211.625 118.172 211.338 118.509 211.172 118.866L209.74 118.355C209.995 117.759 210.336 117.294 210.763 116.962C211.193 116.625 211.662 116.391 212.169 116.259C212.68 116.122 213.183 116.054 213.677 116.054C213.993 116.054 214.355 116.092 214.764 116.169C215.177 116.241 215.576 116.393 215.959 116.623C216.347 116.853 216.669 117.2 216.924 117.665C217.18 118.129 217.308 118.751 217.308 119.531V126H215.799V124.67H215.723C215.62 124.884 215.45 125.112 215.211 125.354C214.973 125.597 214.655 125.804 214.259 125.974C213.863 126.145 213.379 126.23 212.808 126.23ZM213.038 124.875C213.635 124.875 214.138 124.758 214.547 124.523C214.96 124.289 215.271 123.987 215.48 123.616C215.693 123.245 215.799 122.855 215.799 122.446V121.065C215.736 121.142 215.595 121.212 215.378 121.276C215.165 121.336 214.917 121.389 214.636 121.436C214.359 121.479 214.089 121.517 213.824 121.551C213.564 121.581 213.353 121.607 213.191 121.628C212.799 121.679 212.433 121.762 212.092 121.877C211.755 121.988 211.483 122.156 211.274 122.382C211.069 122.604 210.967 122.906 210.967 123.29C210.967 123.814 211.161 124.21 211.549 124.479C211.941 124.743 212.437 124.875 213.038 124.875ZM221.57 120.094V126H220.061V116.182H221.519V117.716H221.647C221.877 117.217 222.226 116.817 222.695 116.514C223.164 116.207 223.769 116.054 224.51 116.054C225.175 116.054 225.757 116.19 226.255 116.463C226.754 116.732 227.142 117.141 227.419 117.69C227.696 118.236 227.834 118.926 227.834 119.761V126H226.326V119.864C226.326 119.092 226.125 118.491 225.725 118.061C225.324 117.626 224.774 117.409 224.076 117.409C223.594 117.409 223.164 117.513 222.784 117.722C222.409 117.931 222.113 118.236 221.896 118.636C221.679 119.037 221.57 119.523 221.57 120.094ZM239.361 126.205C238.542 126.205 237.82 125.998 237.194 125.585C236.567 125.167 236.077 124.579 235.723 123.82C235.37 123.058 235.193 122.156 235.193 121.116C235.193 120.085 235.37 119.19 235.723 118.432C236.077 117.673 236.569 117.087 237.2 116.674C237.831 116.261 238.559 116.054 239.386 116.054C240.025 116.054 240.53 116.161 240.901 116.374C241.276 116.582 241.562 116.821 241.758 117.089C241.958 117.354 242.113 117.571 242.224 117.741H242.352V112.909H243.861V126H242.403V124.491H242.224C242.113 124.67 241.956 124.896 241.751 125.169C241.547 125.437 241.255 125.678 240.875 125.891C240.496 126.1 239.991 126.205 239.361 126.205ZM239.565 124.849C240.17 124.849 240.682 124.692 241.099 124.376C241.517 124.057 241.834 123.616 242.052 123.053C242.269 122.487 242.378 121.832 242.378 121.091C242.378 120.358 242.271 119.717 242.058 119.167C241.845 118.613 241.53 118.183 241.112 117.876C240.694 117.565 240.179 117.409 239.565 117.409C238.926 117.409 238.393 117.573 237.967 117.901C237.545 118.225 237.228 118.666 237.015 119.224C236.806 119.778 236.701 120.401 236.701 121.091C236.701 121.79 236.808 122.425 237.021 122.996C237.238 123.562 237.558 124.014 237.98 124.351C238.406 124.683 238.934 124.849 239.565 124.849ZM246.833 126V116.182H248.341V126H246.833ZM247.6 114.545C247.306 114.545 247.052 114.445 246.839 114.245C246.63 114.045 246.526 113.804 246.526 113.523C246.526 113.241 246.63 113.001 246.839 112.8C247.052 112.6 247.306 112.5 247.6 112.5C247.894 112.5 248.145 112.6 248.354 112.8C248.567 113.001 248.674 113.241 248.674 113.523C248.674 113.804 248.567 114.045 248.354 114.245C248.145 114.445 247.894 114.545 247.6 114.545ZM263.121 118.381L261.766 118.764C261.681 118.538 261.555 118.319 261.389 118.106C261.227 117.888 261.006 117.71 260.724 117.569C260.443 117.428 260.083 117.358 259.644 117.358C259.043 117.358 258.543 117.496 258.142 117.773C257.746 118.046 257.547 118.393 257.547 118.815C257.547 119.19 257.684 119.487 257.957 119.704C258.229 119.921 258.655 120.102 259.235 120.247L260.692 120.605C261.57 120.818 262.224 121.144 262.655 121.583C263.085 122.018 263.3 122.578 263.3 123.264C263.3 123.827 263.138 124.33 262.815 124.773C262.495 125.216 262.047 125.565 261.472 125.821C260.897 126.077 260.228 126.205 259.465 126.205C258.464 126.205 257.635 125.987 256.979 125.553C256.322 125.118 255.907 124.483 255.732 123.648L257.164 123.29C257.3 123.818 257.558 124.214 257.937 124.479C258.321 124.743 258.822 124.875 259.44 124.875C260.143 124.875 260.701 124.726 261.114 124.428C261.532 124.125 261.741 123.763 261.741 123.341C261.741 123 261.621 122.714 261.383 122.484C261.144 122.25 260.778 122.075 260.283 121.96L258.647 121.577C257.748 121.364 257.087 121.033 256.665 120.586C256.248 120.134 256.039 119.57 256.039 118.892C256.039 118.338 256.195 117.848 256.506 117.422C256.821 116.996 257.249 116.661 257.79 116.418C258.336 116.175 258.954 116.054 259.644 116.054C260.616 116.054 261.378 116.267 261.932 116.693C262.491 117.119 262.887 117.682 263.121 118.381ZM269.688 126.205C268.742 126.205 267.926 125.996 267.239 125.578C266.558 125.156 266.031 124.568 265.661 123.814C265.294 123.055 265.111 122.173 265.111 121.168C265.111 120.162 265.294 119.276 265.661 118.509C266.031 117.737 266.547 117.136 267.207 116.706C267.872 116.271 268.648 116.054 269.534 116.054C270.046 116.054 270.551 116.139 271.049 116.31C271.548 116.48 272.002 116.757 272.411 117.141C272.82 117.52 273.146 118.023 273.389 118.649C273.631 119.276 273.753 120.047 273.753 120.963V121.602H266.185V120.298H272.219C272.219 119.744 272.108 119.25 271.886 118.815C271.669 118.381 271.358 118.038 270.953 117.786C270.553 117.535 270.08 117.409 269.534 117.409C268.933 117.409 268.413 117.558 267.975 117.857C267.54 118.151 267.205 118.534 266.971 119.007C266.737 119.48 266.619 119.987 266.619 120.528V121.398C266.619 122.139 266.747 122.768 267.003 123.283C267.263 123.795 267.623 124.185 268.083 124.453C268.543 124.717 269.078 124.849 269.688 124.849C270.084 124.849 270.442 124.794 270.761 124.683C271.085 124.568 271.364 124.398 271.599 124.172C271.833 123.942 272.014 123.656 272.142 123.315L273.6 123.724C273.446 124.219 273.188 124.653 272.826 125.028C272.464 125.399 272.016 125.689 271.484 125.898C270.951 126.102 270.352 126.205 269.688 126.205ZM277.454 122.42L277.428 120.554H277.735L282.031 116.182H283.897L279.32 120.81H279.193L277.454 122.42ZM276.048 126V112.909H277.556V126H276.048ZM282.286 126L278.451 121.142L279.525 120.094L284.204 126H282.286ZM285.839 126V116.182H287.347V126H285.839ZM286.606 114.545C286.312 114.545 286.058 114.445 285.845 114.245C285.636 114.045 285.532 113.804 285.532 113.523C285.532 113.241 285.636 113.001 285.845 112.8C286.058 112.6 286.312 112.5 286.606 112.5C286.9 112.5 287.151 112.6 287.36 112.8C287.573 113.001 287.68 113.241 287.68 113.523C287.68 113.804 287.573 114.045 287.36 114.245C287.151 114.445 286.9 114.545 286.606 114.545ZM294.38 116.182V117.46H289.292V116.182H294.38ZM290.775 113.83H292.283V123.188C292.283 123.614 292.345 123.933 292.469 124.146C292.597 124.355 292.759 124.496 292.955 124.568C293.155 124.636 293.366 124.67 293.587 124.67C293.754 124.67 293.89 124.662 293.997 124.645C294.103 124.624 294.188 124.607 294.252 124.594L294.559 125.949C294.457 125.987 294.314 126.026 294.131 126.064C293.948 126.107 293.715 126.128 293.434 126.128C293.008 126.128 292.59 126.036 292.181 125.853C291.776 125.67 291.44 125.391 291.171 125.016C290.907 124.641 290.775 124.168 290.775 123.597V113.83ZM299.538 126.23C298.916 126.23 298.352 126.113 297.845 125.879C297.337 125.64 296.935 125.297 296.636 124.849C296.338 124.398 296.189 123.852 296.189 123.213C296.189 122.651 296.3 122.195 296.521 121.845C296.743 121.491 297.039 121.214 297.41 121.014C297.781 120.814 298.19 120.665 298.637 120.567C299.089 120.464 299.543 120.384 299.999 120.324C300.595 120.247 301.079 120.19 301.45 120.151C301.825 120.109 302.097 120.038 302.268 119.94C302.443 119.842 302.53 119.672 302.53 119.429V119.378C302.53 118.747 302.357 118.257 302.012 117.908C301.671 117.558 301.153 117.384 300.459 117.384C299.739 117.384 299.174 117.541 298.765 117.857C298.356 118.172 298.068 118.509 297.902 118.866L296.47 118.355C296.726 117.759 297.067 117.294 297.493 116.962C297.923 116.625 298.392 116.391 298.899 116.259C299.411 116.122 299.913 116.054 300.408 116.054C300.723 116.054 301.085 116.092 301.494 116.169C301.908 116.241 302.306 116.393 302.69 116.623C303.078 116.853 303.399 117.2 303.655 117.665C303.911 118.129 304.038 118.751 304.038 119.531V126H302.53V124.67H302.453C302.351 124.884 302.18 125.112 301.942 125.354C301.703 125.597 301.386 125.804 300.989 125.974C300.593 126.145 300.109 126.23 299.538 126.23ZM299.769 124.875C300.365 124.875 300.868 124.758 301.277 124.523C301.69 124.289 302.002 123.987 302.21 123.616C302.423 123.245 302.53 122.855 302.53 122.446V121.065C302.466 121.142 302.325 121.212 302.108 121.276C301.895 121.336 301.648 121.389 301.367 121.436C301.09 121.479 300.819 121.517 300.555 121.551C300.295 121.581 300.084 121.607 299.922 121.628C299.53 121.679 299.163 121.762 298.823 121.877C298.486 121.988 298.213 122.156 298.004 122.382C297.8 122.604 297.698 122.906 297.698 123.29C297.698 123.814 297.891 124.21 298.279 124.479C298.671 124.743 299.168 124.875 299.769 124.875ZM306.792 126V116.182H308.249V117.665H308.351C308.53 117.179 308.854 116.785 309.323 116.482C309.792 116.18 310.32 116.028 310.908 116.028C311.019 116.028 311.158 116.031 311.324 116.035C311.49 116.039 311.616 116.045 311.701 116.054V117.588C311.65 117.575 311.533 117.556 311.349 117.531C311.17 117.501 310.981 117.486 310.78 117.486C310.303 117.486 309.877 117.586 309.502 117.786C309.131 117.982 308.837 118.255 308.62 118.604C308.407 118.95 308.3 119.344 308.3 119.787V126H306.792ZM313.489 126V116.182H314.946V117.716H315.074C315.279 117.192 315.609 116.785 316.065 116.495C316.521 116.201 317.069 116.054 317.708 116.054C318.356 116.054 318.895 116.201 319.325 116.495C319.76 116.785 320.098 117.192 320.341 117.716H320.444C320.695 117.209 321.072 116.806 321.575 116.508C322.078 116.205 322.681 116.054 323.384 116.054C324.262 116.054 324.98 116.329 325.538 116.879C326.096 117.424 326.375 118.274 326.375 119.429V126H324.867V119.429C324.867 118.705 324.669 118.187 324.272 117.876C323.876 117.565 323.41 117.409 322.873 117.409C322.182 117.409 321.647 117.618 321.268 118.036C320.889 118.449 320.699 118.973 320.699 119.608V126H319.165V119.276C319.165 118.717 318.984 118.268 318.622 117.927C318.26 117.582 317.793 117.409 317.222 117.409C316.83 117.409 316.464 117.513 316.123 117.722C315.786 117.931 315.513 118.221 315.304 118.592C315.1 118.958 314.998 119.382 314.998 119.864V126H313.489ZM335.321 121.986V116.182H336.83V126H335.321V124.338H335.219C334.989 124.837 334.631 125.261 334.145 125.61C333.659 125.955 333.046 126.128 332.304 126.128C331.69 126.128 331.145 125.994 330.668 125.725C330.19 125.452 329.815 125.043 329.543 124.498C329.27 123.948 329.134 123.256 329.134 122.42V116.182H330.642V122.318C330.642 123.034 330.842 123.605 331.243 124.031C331.648 124.457 332.163 124.67 332.79 124.67C333.165 124.67 333.546 124.575 333.934 124.383C334.326 124.191 334.654 123.897 334.918 123.501C335.187 123.104 335.321 122.599 335.321 121.986Z" fill="white"/>
<path d="M39.6168 96.52C32.4602 96.52 27.2035 94.715 23.8468 91.105C20.4902 87.495 18.8118 81.51 18.8118 73.15C18.8118 66.5 19.9202 59.3433 22.1368 51.68C24.4168 44.0167 28.0268 37.4617 32.9668 32.015C37.9702 26.505 44.3035 23.75 51.9668 23.75C56.7168 23.75 60.5485 24.795 63.4618 26.885C66.3752 28.975 67.8318 32.1733 67.8318 36.48C67.8318 39.2033 67.2935 41.3567 66.2168 42.94C65.1402 44.46 63.4618 45.22 61.1818 45.22C58.9018 45.22 57.0968 44.3967 55.7668 42.75C56.9068 42.18 57.9202 41.04 58.8068 39.33C59.6935 37.62 60.1368 35.8467 60.1368 34.01C60.1368 32.3 59.6618 30.9067 58.7118 29.83C57.8252 28.7533 56.3685 28.215 54.3418 28.215C50.9852 28.215 47.7868 30.5267 44.7468 35.15C41.7068 39.71 39.2368 45.4733 37.3368 52.44C35.5002 59.4067 34.5818 66.12 34.5818 72.58C34.5818 77.3933 35.4052 81.0667 37.0518 83.6C38.6985 86.1333 41.6752 87.4 45.9818 87.4C49.7185 87.4 53.1702 86.5767 56.3368 84.93C59.5035 83.2833 62.2268 80.94 64.5068 77.9L66.6918 78.85C65.1085 82.84 62.7652 86.165 59.6618 88.825C56.5585 91.485 53.2335 93.4483 49.6868 94.715C46.1402 95.9183 42.7835 96.52 39.6168 96.52ZM73.6335 95.57C70.5935 95.57 68.1235 94.62 66.2235 92.72C64.3868 90.82 63.4685 87.97 63.4685 84.17C63.4685 82.5867 63.7218 80.5283 64.2285 77.995L70.6885 47.5H84.3685L77.5285 79.8C77.3385 80.75 77.2435 81.6367 77.2435 82.46C77.2435 85.0567 78.1935 86.355 80.0935 86.355C81.8668 86.355 83.3868 85.6267 84.6535 84.17C85.9202 82.65 86.9335 80.5917 87.6935 77.995L94.1535 47.5H107.834L100.994 79.8C100.74 80.75 100.614 81.7633 100.614 82.84C100.614 84.1067 100.899 85.025 101.469 85.595C102.102 86.1017 103.115 86.355 104.509 86.355C106.282 86.355 107.802 85.595 109.069 84.075C110.399 82.555 111.444 80.5283 112.204 77.995H116.194C113.85 84.835 110.937 89.49 107.454 91.96C104.034 94.3667 100.582 95.57 97.0985 95.57C94.3752 95.57 92.1902 94.81 90.5435 93.29C88.9602 91.77 88.0102 89.5217 87.6935 86.545C85.5402 90.0283 83.2602 92.4033 80.8535 93.67C78.5102 94.9367 76.1035 95.57 73.6335 95.57ZM121.597 95.57C118.557 95.57 116.087 94.62 114.187 92.72C112.351 90.82 111.432 87.97 111.432 84.17C111.432 82.5867 111.686 80.5283 112.192 77.995L122.357 30.4L136.417 28.5L125.492 79.8C125.239 80.75 125.112 81.7633 125.112 82.84C125.112 84.1067 125.397 85.025 125.967 85.595C126.601 86.1017 127.614 86.355 129.007 86.355C130.844 86.355 132.554 85.595 134.137 84.075C135.721 82.4917 136.861 80.465 137.557 77.995H141.547C139.204 84.835 136.196 89.49 132.522 91.96C128.849 94.3667 125.207 95.57 121.597 95.57ZM153.385 42.37C151.295 42.37 149.521 41.6417 148.065 40.185C146.608 38.7283 145.88 36.955 145.88 34.865C145.88 32.775 146.608 31.0017 148.065 29.545C149.521 28.025 151.295 27.265 153.385 27.265C155.475 27.265 157.248 28.025 158.705 29.545C160.225 31.0017 160.985 32.775 160.985 34.865C160.985 36.955 160.225 38.7283 158.705 40.185C157.248 41.6417 155.475 42.37 153.385 42.37ZM146.925 95.57C143.885 95.57 141.415 94.62 139.515 92.72C137.678 90.82 136.76 87.97 136.76 84.17C136.76 82.5867 137.013 80.5283 137.52 77.995L143.98 47.5H157.66L150.82 79.8C150.566 80.75 150.44 81.7633 150.44 82.84C150.44 84.1067 150.725 85.025 151.295 85.595C151.928 86.1017 152.941 86.355 154.335 86.355C156.171 86.355 157.881 85.595 159.465 84.075C161.048 82.4917 162.188 80.465 162.885 77.995H166.875C164.531 84.835 161.523 89.49 157.85 91.96C154.176 94.3667 150.535 95.57 146.925 95.57ZM197.142 95.57C193.278 95.57 190.428 94.5567 188.592 92.53C186.818 90.44 185.932 87.875 185.932 84.835C185.932 83.505 186.09 82.0167 186.407 80.37C186.723 78.66 187.04 77.0133 187.357 75.43C187.737 73.8467 187.99 72.8333 188.117 72.39C188.623 70.1733 189.098 67.9883 189.542 65.835C189.985 63.6817 190.207 61.94 190.207 60.61C190.207 57.38 189.067 55.765 186.787 55.765C185.14 55.765 183.683 56.5883 182.417 58.235C181.15 59.8183 180.137 61.9083 179.377 64.505L172.917 95H159.237L169.307 47.5H182.987L181.942 52.44C185.108 48.8933 188.813 47.12 193.057 47.12C196.287 47.12 198.852 48.0067 200.752 49.78C202.652 51.5533 203.602 54.245 203.602 57.855C203.602 59.6917 203.38 61.75 202.937 64.03C202.493 66.2467 201.86 68.97 201.037 72.2C200.53 74.1633 200.055 76.095 199.612 77.995C199.232 79.8317 199.042 81.2883 199.042 82.365C199.042 83.6317 199.327 84.6133 199.897 85.31C200.467 86.0067 201.448 86.355 202.842 86.355C204.742 86.355 206.262 85.69 207.402 84.36C208.542 82.9667 209.682 80.845 210.822 77.995H214.812C212.468 84.9617 209.745 89.6483 206.642 92.055C203.602 94.3983 200.435 95.57 197.142 95.57ZM224.396 95.57C219.709 95.57 216.067 94.3667 213.471 91.96C210.874 89.49 209.576 85.6583 209.576 80.465C209.576 76.095 210.431 71.2817 212.141 66.025C213.851 60.7683 216.637 56.24 220.501 52.44C224.364 48.5767 229.272 46.645 235.226 46.645C242.192 46.645 245.676 49.685 245.676 55.765C245.676 59.3117 244.662 62.5733 242.636 65.55C240.609 68.5267 237.917 70.9333 234.561 72.77C231.204 74.5433 227.626 75.5567 223.826 75.81C223.699 77.71 223.636 78.9767 223.636 79.61C223.636 82.7133 224.174 84.835 225.251 85.975C226.327 87.0517 228.069 87.59 230.476 87.59C233.896 87.59 236.809 86.7983 239.216 85.215C241.686 83.6317 244.377 81.225 247.291 77.995H250.521C243.491 89.7117 234.782 95.57 224.396 95.57ZM224.586 71.25C226.929 71.1233 229.146 70.3 231.236 68.78C233.389 67.26 235.099 65.3283 236.366 62.985C237.696 60.6417 238.361 58.1717 238.361 55.575C238.361 52.9783 237.569 51.68 235.986 51.68C233.706 51.68 231.457 53.675 229.241 57.665C227.087 61.655 225.536 66.1833 224.586 71.25ZM258.671 95.57C255.061 95.57 252.052 94.335 249.646 91.865C247.239 89.395 246.036 85.5317 246.036 80.275C246.036 75.5883 246.954 70.68 248.791 65.55C250.691 60.3567 253.477 55.9867 257.151 52.44C260.887 48.83 265.321 47.025 270.451 47.025C273.047 47.025 274.979 47.4683 276.246 48.355C277.512 49.2417 278.146 50.4133 278.146 51.87V52.535L279.191 47.5H292.871L286.031 79.8C285.777 80.75 285.651 81.7633 285.651 82.84C285.651 85.5633 286.949 86.925 289.546 86.925C291.319 86.925 292.839 86.1017 294.106 84.455C295.436 82.8083 296.481 80.655 297.241 77.995H301.231C298.887 84.835 295.974 89.49 292.491 91.96C289.071 94.3667 285.619 95.57 282.136 95.57C279.476 95.57 277.322 94.8417 275.676 93.385C274.092 91.865 273.142 89.68 272.826 86.83C270.989 89.4267 268.931 91.5483 266.651 93.195C264.434 94.7783 261.774 95.57 258.671 95.57ZM264.846 86.355C266.429 86.355 267.981 85.6267 269.501 84.17C271.084 82.65 272.161 80.5917 272.731 77.995L277.291 56.525C277.291 55.7017 276.974 54.91 276.341 54.15C275.707 53.3267 274.726 52.915 273.396 52.915C270.862 52.915 268.582 54.4033 266.556 57.38C264.529 60.2933 262.946 63.84 261.806 68.02C260.666 72.1367 260.096 75.7783 260.096 78.945C260.096 82.1117 260.539 84.1383 261.426 85.025C262.376 85.9117 263.516 86.355 264.846 86.355ZM303.735 47.5H317.415L316.18 53.39C318.334 51.49 320.265 50.0333 321.975 49.02C323.749 48.0067 325.649 47.5 327.675 47.5C329.702 47.5 331.285 48.1967 332.425 49.59C333.629 50.9833 334.23 52.6617 334.23 54.625C334.23 56.4617 333.629 58.0767 332.425 59.47C331.222 60.8633 329.544 61.56 327.39 61.56C325.997 61.56 325.047 61.2433 324.54 60.61C324.097 59.9133 323.749 58.9317 323.495 57.665C323.305 56.8417 323.115 56.24 322.925 55.86C322.735 55.48 322.387 55.29 321.88 55.29C320.55 55.29 319.41 55.575 318.46 56.145C317.574 56.6517 316.402 57.57 314.945 58.9L307.345 95H293.665L303.735 47.5Z" fill="white"/>
</svg>
